# xmcd CD database file
#
# Track frame offsets:
#	150
#	20560
#	48505
#	73062
#	92885
#	115467
#	146530
#	165265
#	189527
#	220205
#
# Disc length: 4339 seconds
#
# Revision: 0
# Processed by: cddbd v1.5.2PL0 Copyright (c) Steve Scherf et al.
# Submitted via: CDex 1.51
#
DISCID=9010f10a
DTITLE=Amy Stephens Group` - Gold Through Fire
DYEAR=2000
DGENRE=Jazz
TTITLE0=The Journey
TTITLE1=Gold Through Fire
TTITLE2=Hope
TTITLE3=Hold the Turkey, Please!
TTITLE4=Peace
TTITLE5=And Peter Wept . . .
TTITLE6=A Love Remembered
TTITLE7=Boo's Boogie
TTITLE8=Amazing Grace
TTITLE9=Data Track
EXTD=YEAR: 2000
EXTT0=
EXTT1=
EXTT2=
EXTT3=
EXTT4=
EXTT5=
EXTT6=
EXTT7=
EXTT8=
EXTT9=
PLAYORDER=
